<svg xmlns="http://www.w3.org/2000/svg" xmlns:xlink="http://www.w3.org/1999/xlink" xmlns:svgjs="http://svgjs.com/svgjs" id="SvgjsSvg1016" width="288" height="288"><defs id="SvgjsDefs1017"></defs><g id="SvgjsG1018"><svg xmlns="http://www.w3.org/2000/svg" id="Layer_1" width="288" height="288" x="0" y="0" viewBox="0 0 64 64" xml:space="preserve"><path fill="#cd3963" d="M21.754 39.295a3.377 3.377 0 0 0-3.377-3.377H9.811a3.377 3.377 0 1 0 0 6.754h1.263c-1.35 2.208-2.235 5.85-2.235 9.976 0 6.739 2.353 9.352 5.255 9.352s5.256-2.613 5.256-9.352c0-4.127-.885-7.768-2.235-9.976h1.262a3.377 3.377 0 0 0 3.377-3.377z" class="color6acff6 svgShape"></path><path fill="#ffffff" d="M19.184 55.452a22.61 22.61 0 00.162-2.629H8.843c.006.962.064 1.833.162 2.629h10.179zM9.733 45.865a21.343 21.343 0 00-.575 2.628h9.872a21.345 21.345 0 00-.574-2.628H9.733z" class="colorfff svgShape"></path><path fill="none" stroke="#24305a" stroke-linecap="round" stroke-linejoin="round" stroke-miterlimit="10" stroke-width="2" d="M21.754 39.295a3.377 3.377 0 0 0-3.377-3.377H9.811a3.377 3.377 0 1 0 0 6.754h1.263c-1.35 2.208-2.235 5.85-2.235 9.976 0 6.739 2.353 9.352 5.255 9.352s5.256-2.613 5.256-9.352c0-4.127-.885-7.768-2.235-9.976h1.262a3.377 3.377 0 0 0 3.377-3.377z" class="colorStroke3c0458 svgStroke"></path><path fill="#cd3963" d="M57.566 39.295a3.377 3.377 0 0 0-3.377-3.377h-8.566a3.377 3.377 0 1 0 0 6.754h1.262c-1.35 2.208-2.235 5.85-2.235 9.976 0 6.739 2.353 9.352 5.256 9.352s5.255-2.613 5.255-9.352c0-4.127-.885-7.768-2.235-9.976h1.263a3.377 3.377 0 0 0 3.377-3.377z" class="color6acff6 svgShape"></path><path fill="#ffffff" d="M54.995 55.452a22.61 22.61 0 00.162-2.629H44.654c.006.962.064 1.833.162 2.629h10.18zM45.544 45.865a21.345 21.345 0 00-.574 2.628h9.872a21.345 21.345 0 00-.575-2.628h-8.723z" class="colorfff svgShape"></path><path fill="none" stroke="#24305a" stroke-linecap="round" stroke-linejoin="round" stroke-miterlimit="10" stroke-width="2" d="M57.566 39.295a3.377 3.377 0 00-3.377-3.377h-8.566a3.377 3.377 0 100 6.754h1.262c-1.35 2.208-2.235 5.85-2.235 9.976 0 6.739 2.353 9.352 5.256 9.352s5.255-2.613 5.255-9.352c0-4.127-.885-7.768-2.235-9.976h1.263a3.377 3.377 0 003.377-3.377zM14.094 35.918v-9.79a7.358 7.358 0 017.359-7.357h9.643a2.379 2.379 0 012.379 2.378v3.793a4.193 4.193 0 108.385 0V18.11a7.726 7.726 0 00-7.726-7.726H18.287a4.193 4.193 0 110-8.385h23.238a8.38 8.38 0 018.38 8.38v25.538" class="colorStroke3c0458 svgStroke"></path></svg></g></svg>