<svg xmlns="http://www.w3.org/2000/svg" xmlns:xlink="http://www.w3.org/1999/xlink" xmlns:svgjs="http://svgjs.com/svgjs" id="SvgjsSvg1014" width="288" height="288"><defs id="SvgjsDefs1015"></defs><g id="SvgjsG1016"><svg xmlns="http://www.w3.org/2000/svg" id="Layer_1" width="288" height="288" x="0" y="0" viewBox="0 0 64 64" xml:space="preserve"><path fill="#cd3963" d="M29.092 56.253L7.497 33.24C2.052 27.438 1.37 18.357 6.446 12.23c6.135-7.41 17.134-7.567 23.503-.781l2 2.132 1.554-1.655c5.862-6.245 15.785-7.174 22.204-1.503 6.64 5.869 7.078 16.017 1.057 22.434L34.808 56.253a3.919 3.919 0 0 1-5.716 0z" class="color6acff6 svgShape"></path><path fill="none" stroke="#ffffff" stroke-linecap="round" stroke-linejoin="round" stroke-miterlimit="10" stroke-width="2" d="M11.431 12.93a12.138 12.138 0 00-1.905 1.85c-2.004 2.42-2.813 5.51-2.466 8.547M18.173 10.515c-.968.03-1.91.175-2.813.43" class="colorStroked9f1fd svgStroke"></path><path fill="none" stroke="#24305a" stroke-linecap="round" stroke-linejoin="round" stroke-miterlimit="10" stroke-width="2" d="M53.963 35.84L34.808 56.253a3.919 3.919 0 0 1-5.716 0L7.497 33.24C2.052 27.438 1.37 18.357 6.446 12.23c6.135-7.41 17.134-7.567 23.503-.781l2 2.132 1.554-1.655c5.862-6.245 15.785-7.174 22.204-1.503 4.588 4.055 6.215 10.153 4.796 15.65" class="colorStroke3c0458 svgStroke"></path><path fill="none" stroke="#24305a" stroke-linecap="round" stroke-linejoin="round" stroke-miterlimit="10" stroke-width="2" d="M60 31.25h-8.95l-3.443-9.16-3.426 9.16-3.426 9.16-6.852-15.566-3.425 6.406h-6.852" class="colorStroke3c0458 svgStroke"></path></svg></g></svg>