<svg xmlns="http://www.w3.org/2000/svg" xmlns:xlink="http://www.w3.org/1999/xlink" xmlns:svgjs="http://svgjs.com/svgjs" id="SvgjsSvg1024" width="288" height="288"><defs id="SvgjsDefs1025"></defs><g id="SvgjsG1026"><svg xmlns="http://www.w3.org/2000/svg" id="Layer_1" width="288" height="288" x="0" y="0" viewBox="0 0 64 64" xml:space="preserve"><path fill="none" stroke="#fff" stroke-linecap="round" stroke-linejoin="round" stroke-miterlimit="10" stroke-width="2" d="M22.33 7.866A2.869 2.869 0 0 1 25.195 5h3.17" class="colorStrokefff svgStroke"></path><path fill="#ffffff" d="M40.742 4.488c-.594-.377-1.885-1.078-2.941-1.64A7.24 7.24 0 0 0 34.399 2h-9.203a5.865 5.865 0 0 0-5.866 5.866v5.58a3.36 3.36 0 0 0 3.36 3.36h1.959a3.352 3.352 0 0 0 .65 4.308 3.36 3.36 0 0 0 4.74-.348l3.416-3.96h7.287c4.853 7.39 5.108 17.768 4.356 25.62-7.598-11.504-20.54-7.25-22.768-5.76-3.782-8.166-9.163-9.58-17.977-7.217l.535 22.792a105.81 105.81 0 0 0 3.844 1.72C13.899 58.852 21.902 62 30.919 62c4.823 0 9.35-.91 13.316-2.494a43.136 43.136 0 0 0 5.537-1.224c5.371-1.599 8.446-3.8 8.966-4.688 4.43-20.185-8.265-42.932-17.996-49.106z" class="colorfff svgShape"></path><path fill="none" stroke="#24305a" stroke-linecap="round" stroke-linejoin="round" stroke-miterlimit="10" stroke-width="2" d="M4.888 52.241c1.302.613 2.583 1.187 3.844 1.72C13.899 58.852 21.902 62 30.919 62c4.823 0 9.35-.91 13.316-2.494a43.136 43.136 0 0 0 5.537-1.224c5.371-1.599 8.446-3.8 8.966-4.688 4.43-20.185-8.265-42.933-17.996-49.106-.594-.377-1.885-1.078-2.941-1.64A7.24 7.24 0 0 0 34.399 2h-9.203a5.866 5.866 0 0 0-5.866 5.866v5.58a3.36 3.36 0 0 0 3.36 3.36h1.959a3.352 3.352 0 0 0 .65 4.308 3.36 3.36 0 0 0 4.74-.348l3.416-3.96h7.287c4.853 7.39 5.108 17.768 4.356 25.62-7.598-11.504-20.54-7.25-22.768-5.76-3.782-8.166-9.163-9.58-17.977-7.217" class="colorStroke3c0458 svgStroke"></path><path fill="#cd3963" d="M51.598 15.002c2.164 3.466 4.122 7.441 5.658 11.705-4.418 2.422-8.847 3.254-13.287 2.44-.475-3.437-1.379-6.84-2.931-9.85 3.788-2.904 7.275-4.158 10.56-4.295z" class="color6acff6 svgShape"></path><path fill="none" stroke="#24305a" stroke-linecap="round" stroke-linejoin="round" stroke-miterlimit="10" stroke-width="2" d="M51.598 15.002c2.164 3.466 4.122 7.441 5.658 11.705-4.418 2.422-8.847 3.254-13.287 2.44-.475-3.437-1.379-6.84-2.931-9.85 3.788-2.904 7.275-4.158 10.56-4.295zM25.3 21.114a3.36 3.36 0 01-.35-4.739l3.718-4.306" class="colorStroke3c0458 svgStroke"></path></svg></g></svg>