<svg xmlns="http://www.w3.org/2000/svg" xmlns:xlink="http://www.w3.org/1999/xlink" xmlns:svgjs="http://svgjs.com/svgjs" id="SvgjsSvg1021" width="288" height="288"><defs id="SvgjsDefs1022"></defs><g id="SvgjsG1023"><svg xmlns="http://www.w3.org/2000/svg" id="Layer_1" width="288" height="288" x="0" y="0" viewBox="0 0 64 64" xml:space="preserve"><path fill="#ffffff" d="M45.47 34.633h9.215V59.14h-9.216z" transform="rotate(-45 50.077 46.886)" class="colorfff svgShape"></path><path fill="none" stroke="#24305a" stroke-linecap="round" stroke-linejoin="round" stroke-miterlimit="10" stroke-width="2" d="M41.838 45.164l2.574-2.574M46.819 50.145l2.574-2.574M51.792 55.118l2.574-2.574M38.154 41.48l17.33 17.33L62 52.293 51.488 41.782" class="colorStroke3c0458 svgStroke"></path><path fill="#ffffff" d="M52.035 25.706c.759 2.314-9.822 7.873-23.626 12.4-13.805 4.526-25.611 6.308-26.37 3.994-.763-2.327 9.806-7.882 23.61-12.409 13.805-4.526 25.623-6.312 26.386-3.985z" class="colorfff svgShape"></path><path fill="none" stroke="#24305a" stroke-linecap="round" stroke-linejoin="round" stroke-miterlimit="10" stroke-width="2" d="M52.035 25.706c.759 2.314-9.822 7.873-23.626 12.4-13.805 4.526-25.611 6.308-26.37 3.994-.763-2.327 9.806-7.882 23.61-12.409 13.805-4.526 25.623-6.312 26.386-3.985zM28.466 20.28c0-2.038.41-3.984 1.138-5.758 2.264-5.48 7.664-9.332 13.965-9.332" class="colorStroke3c0458 svgStroke"></path><path fill="#ffffff" d="M48.122 5.892a15.052 15.052 0 0 1-13.938 9.332c-1.601 0-3.137-.252-4.58-.702 2.264-5.48 7.664-9.332 13.965-9.332 1.588 0 3.124.252 4.553.702z" class="colorfec465 svgShape"></path><path fill="none" stroke="#24305a" stroke-linecap="round" stroke-linejoin="round" stroke-miterlimit="10" stroke-width="2" d="M48.122 5.892a15.052 15.052 0 0 1-13.938 9.332c-1.601 0-3.137-.252-4.58-.702 2.264-5.48 7.664-9.332 13.965-9.332 1.588 0 3.124.252 4.553.702z" class="colorStroke3c0458 svgStroke"></path><path fill="#cd3963" d="M48.34 33.045c-.481-5.077-2.922-8.674-6.528-11.64a9.72 9.72 0 0 0-7.626-2.106 161.84 161.84 0 0 1-4.558.625 9.5 9.5 0 0 1-2.325 0 161.68 161.68 0 0 1-4.582-.629c-2.726-.415-5.521.34-7.637 2.108C11.043 24.781 8.5 29.074 8.5 34.95c0 2.647.526 5.168 1.462 7.48l-.01-.005 5.351 13.254.007.004a5 5 0 0 0 4.634 3.128c.575 0 1.12-.117 1.634-.296l.027.012 1.951-.686a14.8 14.8 0 0 1 9.818 0l1.951.686.027-.012a4.957 4.957 0 0 0 1.634.296 5 5 0 0 0 4.634-3.128l.007-.004 5.351-13.254-.01.004a19.882 19.882 0 0 0 1.372-9.383z" class="color6acff6 svgShape"></path><path fill="none" stroke="#24305a" stroke-linecap="round" stroke-linejoin="round" stroke-miterlimit="10" stroke-width="2" d="M48.34 33.045c-.481-5.077-2.922-8.674-6.528-11.64a9.72 9.72 0 0 0-7.626-2.106 161.84 161.84 0 0 1-4.558.625 9.5 9.5 0 0 1-2.325 0 161.68 161.68 0 0 1-4.582-.629c-2.726-.415-5.521.34-7.637 2.108C11.043 24.781 8.5 29.074 8.5 34.95c0 2.647.526 5.168 1.462 7.48l-.01-.005 5.351 13.254.007.004a5 5 0 0 0 4.634 3.128c.575 0 1.12-.117 1.634-.296l.027.012 1.951-.686a14.8 14.8 0 0 1 9.818 0l1.951.686.027-.012a4.957 4.957 0 0 0 1.634.296 5 5 0 0 0 4.634-3.128l.007-.004 5.351-13.254-.01.004a19.882 19.882 0 0 0 1.372-9.383z" class="colorStroke3c0458 svgStroke"></path><path fill="none" stroke="#ffffff" stroke-linecap="round" stroke-linejoin="round" stroke-miterlimit="10" stroke-width="2" d="M18.634 22.713a6.665 6.665 0 011.459-.43M12.253 30.228c.738-2.128 2.031-4.029 3.92-5.787" class="colorStroked9f1fd svgStroke"></path><path fill="#ffffff" d="M52.035 25.706l2.858 8.716c.763 2.327-9.818 7.886-23.622 12.412-13.804 4.527-25.611 6.309-26.374 3.982L2.039 42.1c.759 2.314 12.565.532 26.37-3.994 13.804-4.527 24.385-10.086 23.626-12.4z" class="colorfff svgShape"></path><path fill="none" stroke="#24305a" stroke-linecap="round" stroke-linejoin="round" stroke-miterlimit="10" stroke-width="2" d="M52.035 25.706l2.858 8.716c.763 2.327-9.818 7.886-23.622 12.412-13.804 4.527-25.611 6.309-26.374 3.982L2.039 42.1c.759 2.314 12.565.532 26.37-3.994 13.804-4.527 24.385-10.086 23.626-12.4zM9.83 51.776l-1.502-4.578M18.593 50.379l-1.526-4.654M27.093 48.135l-1.274-3.887M35.42 45.405l-1.275-3.887M43.593 42.167l-1.522-4.641M51.487 38.116l-1.502-4.578" class="colorStroke3c0458 svgStroke"></path></svg></g></svg>